<?xml version="1.0" standalone="no"?>
<!DOCTYPE svg PUBLIC "-//W3C//DTD SVG 20010904//EN"
 "http://www.w3.org/TR/2001/REC-SVG-20010904/DTD/svg10.dtd">
<svg version="1.0" xmlns="http://www.w3.org/2000/svg"
 width="3840.000000pt" height="3840.000000pt" viewBox="0 0 3840.000000 3840.000000"
 preserveAspectRatio="xMidYMid meet">
<metadata>
Created by potrace 1.14, written by Peter Selinger 2001-2017
</metadata>
<g transform="translate(0.000000,3840.000000) scale(0.100000,-0.100000)"
fill="#000000" stroke="none">
<path d="M13184 29302 c-3 -9 -11 -28 -16 -42 -6 -14 -12 -31 -14 -38 -2 -14
-44 -121 -70 -179 -33 -76 -42 -100 -54 -138 -7 -22 -12 -42 -11 -44 2 -2 -2
-7 -8 -10 -6 -4 -12 -16 -14 -26 -2 -11 -11 -35 -20 -52 -10 -18 -15 -33 -12
-33 3 0 -2 -11 -11 -25 -9 -14 -13 -25 -9 -25 4 0 3 -6 -3 -12 -6 -7 -11 -17
-13 -23 -1 -5 -5 -19 -10 -30 -4 -11 -23 -60 -43 -110 -19 -49 -61 -155 -93
-235 -32 -80 -58 -148 -59 -152 -1 -5 -3 -11 -4 -15 -1 -5 -2 -11 -1 -15 0 -5
-4 -8 -10 -8 -6 0 -9 -6 -6 -14 3 -8 1 -16 -4 -18 -6 -2 -11 -10 -13 -18 -2
-8 -7 -26 -13 -40 -6 -14 -20 -52 -32 -84 -12 -33 -25 -64 -29 -70 -3 -6 -8
-20 -9 -31 -2 -10 -8 -22 -14 -26 -6 -3 -10 -10 -10 -15 1 -12 -20 -77 -29
-89 -4 -5 -19 -41 -33 -80 -14 -38 -34 -91 -46 -118 -11 -26 -21 -49 -21 -52
-2 -17 -96 -207 -137 -276 -94 -159 -237 -359 -256 -359 -6 0 -8 -3 -4 -6 7
-7 -132 -156 -225 -241 -7 -7 -19 -18 -25 -25 -53 -55 -203 -182 -203 -172 -1
5 -8 -3 -16 -18 -8 -16 -22 -28 -31 -28 -8 0 -26 -11 -39 -25 -13 -14 -26 -25
-30 -25 -4 0 -17 -8 -28 -19 -12 -10 -52 -40 -91 -67 -38 -26 -71 -51 -73 -56
-2 -4 -8 -8 -13 -8 -8 0 -145 -86 -159 -100 -3 -3 -25 -16 -50 -29 -25 -14
-49 -30 -53 -38 -4 -7 -12 -13 -17 -13 -4 0 -42 -20 -83 -44 -41 -25 -78 -42
-81 -39 -3 4 -6 2 -6 -4 0 -10 -49 -38 -62 -35 -5 1 -8 -3 -8 -10 0 -6 -3 -9
-6 -5 -3 3 -18 -5 -32 -18 -14 -13 -39 -27 -54 -30 -15 -4 -32 -14 -38 -23 -5
-9 -10 -14 -10 -9 0 10 -100 -45 -100 -56 0 -4 -4 -6 -9 -2 -5 3 -17 -2 -25
-11 -9 -8 -16 -13 -16 -10 0 3 -15 -3 -32 -14 -71 -42 -106 -59 -112 -53 -3 4
-6 1 -6 -6 0 -7 -4 -9 -10 -6 -5 3 -10 2 -10 -2 0 -9 -64 -41 -85 -43 -5 -1
-14 -8 -18 -16 -5 -8 -12 -12 -18 -9 -5 4 -9 2 -9 -4 0 -5 -16 -15 -35 -21
-19 -6 -35 -16 -35 -21 0 -6 -4 -8 -9 -4 -5 3 -15 0 -23 -7 -7 -7 -20 -14 -28
-16 -8 -2 -18 -9 -22 -15 -4 -7 -8 -9 -8 -5 0 6 -27 -7 -152 -76 -38 -20 -68
-34 -68 -30 0 4 -9 -1 -20 -11 -11 -10 -20 -14 -20 -10 0 5 -6 1 -12 -8 -7 -9
-20 -17 -28 -19 -8 -2 -21 -9 -28 -16 -8 -7 -18 -10 -23 -7 -5 4 -9 2 -9 -4 0
-5 -16 -15 -35 -21 -19 -6 -35 -16 -35 -21 0 -6 -4 -7 -10 -4 -5 3 -10 3 -10
-2 0 -4 -20 -17 -45 -28 -25 -11 -45 -24 -45 -29 0 -5 -3 -6 -7 -3 -3 4 -11 3
-17 -2 -12 -9 -48 -30 -136 -77 -30 -16 -58 -33 -62 -39 -4 -5 -8 -6 -8 -2 0
4 -10 -1 -22 -12 -11 -11 -25 -18 -30 -15 -4 3 -8 2 -8 -3 0 -4 -10 -13 -23
-18 -52 -25 -133 -71 -139 -80 -4 -5 -11 -10 -15 -10 -10 -1 -66 -37 -74 -48
-3 -5 -10 -9 -15 -9 -16 0 -94 -50 -94 -59 0 -5 -5 -9 -12 -9 -13 0 -111 -61
-116 -72 -2 -5 -10 -8 -18 -8 -8 0 -14 -4 -14 -10 0 -5 -7 -10 -15 -10 -8 0
-15 -4 -15 -10 0 -5 -7 -10 -15 -10 -7 0 -19 -8 -24 -17 -6 -10 -11 -14 -11
-10 0 8 -13 -1 -51 -35 -10 -10 -22 -18 -26 -17 -5 0 -24 -13 -43 -30 -19 -16
-39 -31 -45 -32 -5 -2 -25 -17 -44 -34 -18 -16 -37 -29 -42 -27 -5 1 -9 -2 -9
-6 0 -4 -23 -26 -52 -47 -29 -22 -73 -57 -98 -79 -82 -70 -90 -76 -94 -76 -8
0 -373 -356 -378 -369 -3 -9 -97 -118 -139 -162 -15 -16 -29 -35 -32 -44 -4
-8 -11 -15 -17 -15 -5 0 -10 -5 -10 -10 0 -11 -69 -107 -107 -148 -13 -14 -23
-31 -23 -38 0 -7 -3 -14 -8 -16 -17 -7 -182 -275 -182 -295 0 -6 -4 -13 -9
-15 -7 -2 -93 -161 -96 -178 -1 -3 -15 -32 -32 -65 -16 -33 -47 -98 -68 -145
-21 -47 -46 -103 -55 -125 -45 -101 -87 -214 -82 -219 3 -3 0 -6 -6 -6 -6 0
-14 -14 -17 -31 -4 -18 -14 -48 -22 -68 -9 -20 -15 -37 -14 -38 0 -2 -8 -27
-18 -55 -43 -118 -116 -370 -126 -437 -3 -14 -9 -44 -14 -66 -17 -72 -28 -137
-46 -272 -9 -64 -16 -145 -19 -219 -2 -40 -5 -76 -8 -80 -2 -5 -6 -42 -7 -83
-2 -53 1 -76 11 -82 10 -7 10 -9 0 -9 -8 0 -10 -5 -6 -12 5 -7 9 -42 10 -78 3
-88 15 -193 40 -330 3 -14 5 -31 6 -37 1 -7 5 -13 9 -13 4 0 6 -9 4 -21 -6
-31 97 -336 155 -457 49 -103 137 -262 151 -272 3 -3 9 -15 13 -27 4 -13 12
-23 17 -23 5 0 14 -11 19 -25 5 -14 17 -28 25 -31 8 -4 15 -11 15 -18 0 -6 13
-26 29 -43 16 -18 27 -34 24 -36 -2 -3 10 -16 27 -31 17 -14 29 -26 26 -26 -7
0 27 -41 81 -97 23 -24 39 -43 36 -43 -3 0 6 -9 20 -21 43 -33 87 -80 87 -91
0 -6 3 -9 6 -5 4 3 36 -21 73 -53 36 -33 69 -60 73 -60 4 0 21 -13 36 -30 16
-16 32 -30 36 -30 4 0 19 -11 34 -25 15 -14 31 -25 36 -25 5 0 17 -10 27 -22
11 -11 19 -18 19 -14 0 7 14 -4 51 -36 10 -10 19 -15 19 -10 0 4 7 -2 15 -12
8 -11 15 -16 15 -12 0 4 22 -9 50 -29 27 -20 50 -34 50 -31 0 3 22 -10 50 -29
27 -19 54 -35 59 -35 5 0 11 -3 13 -7 3 -8 69 -41 78 -40 3 1 15 -8 28 -18 12
-11 26 -20 30 -20 4 -1 27 -12 52 -25 25 -13 47 -25 50 -25 20 -4 107 -53 117
-65 7 -8 13 -10 13 -4 0 5 32 -5 70 -24 39 -19 76 -35 83 -36 7 -2 33 -13 59
-25 26 -12 49 -21 50 -20 2 1 14 -4 28 -11 14 -8 28 -15 33 -16 4 -1 9 -3 12
-4 3 -1 8 -3 13 -4 9 -2 69 -24 102 -39 14 -6 27 -11 30 -12 30 -6 100 -31
100 -35 0 -3 10 -6 22 -7 19 -2 118 -32 176 -54 13 -5 32 -9 42 -9 11 0 20 -5
20 -11 0 -5 8 -9 18 -7 9 1 22 -1 28 -4 6 -4 21 -9 35 -12 49 -10 65 -15 112
-31 27 -9 51 -14 55 -11 3 3 11 1 19 -5 7 -6 13 -8 13 -4 0 4 7 2 15 -5 8 -7
15 -9 15 -5 0 4 6 3 12 -2 7 -6 21 -9 30 -8 10 2 20 -1 23 -5 3 -5 12 -7 19
-4 8 3 17 1 20 -5 4 -6 13 -8 20 -5 8 3 17 0 21 -5 3 -6 11 -9 16 -6 5 4 14 3
21 -1 7 -4 21 -9 32 -10 28 -3 78 -13 96 -20 8 -4 31 -8 50 -11 19 -3 41 -10
48 -15 8 -7 12 -7 12 1 0 9 6 8 23 -1 12 -7 29 -11 39 -10 9 2 19 -2 23 -8 4
-7 12 -7 25 0 15 8 21 6 29 -7 6 -10 11 -12 11 -6 0 9 7 10 24 3 13 -5 27 -6
30 -3 3 4 6 2 6 -3 0 -5 8 -10 18 -11 43 -3 108 -11 122 -16 8 -3 37 -8 64
-11 27 -3 50 -7 51 -8 2 -2 -25 -46 -60 -98 -36 -52 -64 -100 -65 -107 0 -6
-4 -13 -8 -15 -11 -4 -105 -163 -128 -215 -10 -24 -21 -43 -26 -43 -4 0 -7 -3
-6 -7 4 -15 -14 -53 -24 -53 -6 0 -8 -3 -5 -7 4 -3 3 -11 -2 -17 -17 -20 -70
-164 -91 -246 -25 -100 -34 -171 -34 -275 1 -171 17 -249 96 -480 33 -93 60
-174 62 -180 2 -5 13 -32 26 -60 12 -27 51 -116 87 -197 l65 -146 -29 -44
c-15 -23 -31 -45 -34 -48 -3 -3 -8 -10 -10 -15 -2 -6 -35 -60 -72 -120 -38
-61 -74 -119 -80 -130 -7 -11 -15 -22 -18 -25 -10 -8 -123 -195 -120 -198 1
-2 -7 -12 -19 -22 -12 -10 -21 -20 -20 -22 3 -8 -16 -47 -25 -50 -5 -2 -9 -7
-7 -12 2 -5 -1 -12 -5 -15 -9 -6 -196 -298 -223 -348 -8 -16 -18 -29 -22 -31
-5 -2 -8 -10 -8 -17 0 -7 -4 -15 -9 -17 -11 -4 -111 -165 -111 -178 0 -5 -4
-10 -10 -10 -5 0 -10 -5 -10 -10 0 -6 -5 -16 -10 -23 -25 -29 -70 -103 -70
-115 0 -7 -4 -10 -10 -7 -9 6 -14 -8 -11 -27 0 -5 -3 -8 -9 -8 -5 0 -16 -16
-24 -35 -8 -19 -20 -35 -26 -35 -6 0 -8 -5 -5 -10 3 -6 -1 -13 -9 -16 -9 -3
-13 -10 -11 -15 3 -4 -3 -17 -15 -29 -11 -11 -20 -22 -19 -25 0 -3 -15 -29
-33 -57 -18 -28 -38 -59 -43 -69 -6 -9 -17 -24 -24 -33 -7 -9 -11 -16 -7 -16
3 0 -3 -9 -14 -20 -12 -12 -18 -25 -15 -29 2 -5 -2 -12 -11 -15 -8 -3 -13 -10
-10 -15 3 -5 -1 -12 -10 -15 -8 -3 -12 -10 -9 -16 3 -5 2 -10 -3 -10 -5 0 -17
-17 -28 -37 -19 -37 -75 -96 -136 -143 -18 -14 -46 -37 -61 -52 -16 -16 -31
-28 -35 -28 -3 0 -15 -9 -27 -19 -56 -54 -75 -69 -75 -63 0 4 -6 0 -13 -8 -7
-8 -39 -37 -72 -65 -33 -27 -71 -60 -85 -72 -14 -12 -41 -35 -60 -52 -70 -60
-203 -191 -195 -191 5 0 -1 -7 -13 -16 -12 -8 -20 -19 -17 -24 3 -5 0 -12 -8
-17 -7 -4 -28 -37 -46 -73 -19 -36 -38 -67 -43 -68 -4 -2 -6 -7 -3 -12 3 -4
-4 -32 -14 -61 -10 -30 -26 -99 -36 -153 -29 -161 -12 -443 40 -656 15 -62 18
-76 19 -92 0 -10 4 -18 9 -18 5 0 7 -9 4 -20 -3 -11 -1 -20 3 -20 8 0 26 -58
22 -72 -1 -5 2 -8 7 -8 6 0 8 -9 6 -20 -2 -11 1 -22 6 -25 5 -4 7 -10 4 -15
-3 -5 1 -15 9 -23 8 -8 13 -17 10 -20 -4 -3 -2 -12 2 -19 5 -7 9 -17 10 -23 4
-18 101 -258 134 -330 37 -81 52 -118 50 -124 -1 -2 2 -7 7 -10 7 -5 104 -195
108 -211 0 -3 17 -34 35 -69 19 -35 46 -85 58 -110 13 -25 28 -47 33 -49 5 -2
9 -12 9 -22 0 -9 7 -23 15 -30 8 -7 12 -16 10 -21 -3 -4 0 -11 7 -16 7 -4 29
-37 48 -73 19 -36 82 -144 141 -242 59 -97 104 -180 101 -184 -4 -4 -2 -4 4
-1 7 4 17 -6 24 -23 7 -17 17 -30 22 -30 5 0 7 -4 4 -9 -3 -5 5 -20 18 -34 13
-14 21 -28 18 -31 -3 -3 0 -6 6 -6 7 0 11 -3 10 -7 -2 -7 29 -61 42 -73 15
-15 79 -120 73 -120 -5 0 0 -5 10 -11 9 -5 17 -14 17 -20 0 -5 9 -19 20 -31
11 -12 20 -28 20 -35 0 -7 3 -13 8 -13 4 0 18 -20 32 -45 14 -25 28 -45 32
-45 5 0 8 -5 8 -10 0 -10 155 -248 169 -260 3 -3 12 -17 20 -32 8 -16 18 -28
23 -28 4 0 8 -7 8 -15 0 -8 4 -15 10 -15 5 0 9 -3 8 -8 -3 -11 43 -82 54 -82
5 0 7 -4 4 -9 -3 -5 1 -11 9 -15 8 -3 15 0 15 7 0 8 3 9 8 1 5 -7 140 -10 437
-10 237 1 451 -2 478 -5 26 -3 47 -1 47 3 0 5 6 6 13 1 6 -4 212 -9 457 -10
245 0 455 -3 468 -6 13 -4 22 -1 22 6 0 8 3 9 8 1 5 -7 146 -11 452 -11 245 0
460 -3 478 -6 21 -3 32 -1 32 6 0 8 3 9 8 1 5 -7 141 -10 442 -9 239 0 445 -3
458 -7 13 -4 22 -3 22 3 0 6 6 6 18 1 9 -5 212 -9 452 -8 239 1 440 -1 445 -4
6 -3 233 -5 506 -6 273 0 501 -4 507 -8 7 -4 12 -2 12 6 0 8 3 9 8 3 5 -7 154
-11 442 -13 239 -1 557 -3 705 -5 213 -2 276 0 298 11 15 7 27 18 27 23 0 5 3
8 8 7 12 -3 62 25 62 34 0 5 4 7 9 4 5 -3 19 3 32 13 13 10 46 30 72 44 26 15
58 34 71 42 12 8 26 12 29 8 4 -3 7 -2 7 4 0 5 25 22 55 38 31 15 58 32 61 36
3 5 9 7 13 5 4 -3 18 4 29 15 12 11 22 17 22 13 0 -4 8 0 18 8 9 9 22 17 27
19 6 2 55 29 109 59 53 30 110 61 124 69 15 8 33 20 40 28 8 7 18 11 23 8 5
-4 9 -2 9 2 0 5 14 17 30 26 17 10 30 15 30 12 0 -3 6 -1 13 5 6 6 84 52 172
102 88 49 167 97 177 105 9 8 24 16 33 17 9 1 20 7 23 12 4 5 33 22 65 39 31
16 57 33 57 38 0 4 5 5 10 2 6 -3 10 -1 10 5 0 6 5 8 10 5 6 -3 10 -1 10 6 0
7 3 9 6 6 4 -4 25 7 47 23 23 17 46 30 53 30 7 0 14 4 16 8 4 10 158 104 158
96 0 -2 10 4 22 15 11 11 25 18 30 15 4 -3 8 -1 8 4 0 5 15 17 33 27 77 40 87
47 87 56 0 6 5 7 10 4 6 -3 13 1 16 9 3 9 10 14 14 11 4 -3 19 4 33 15 14 11
28 20 31 20 9 0 120 74 124 83 2 4 10 7 18 7 8 0 14 4 14 9 0 5 10 13 22 17
12 3 26 10 32 15 21 17 446 297 446 293 0 -2 11 7 24 19 29 26 42 36 77 59 14
9 33 24 42 33 9 8 20 16 24 17 14 1 93 61 93 70 0 4 7 8 15 8 9 0 18 7 21 15
4 8 11 15 17 15 6 0 17 6 26 14 9 8 28 26 44 40 15 14 28 25 30 24 3 -2 35 24
95 77 252 224 333 317 413 480 64 131 110 273 113 347 0 27 4 48 7 48 14 0 -3
508 -17 532 -3 4 10 37 29 72 20 36 33 67 29 70 -3 3 0 6 7 6 7 0 19 16 27 35
8 19 19 35 25 35 5 0 8 4 4 9 -3 5 1 16 9 24 8 8 12 17 9 21 -3 3 2 8 11 12 9
3 14 10 11 14 -3 5 2 16 11 24 8 9 13 16 10 16 -4 0 16 35 42 78 44 70 53 87
63 117 1 6 11 19 21 29 10 11 18 25 18 32 0 6 7 17 15 24 8 7 12 16 9 21 -3 5
-1 9 3 9 5 0 13 9 18 20 40 80 80 150 87 150 4 0 8 5 8 11 0 7 29 62 65 123
35 61 65 116 66 121 1 6 9 15 18 22 9 7 12 13 7 13 -5 0 -2 8 6 18 8 9 35 53
59 97 24 44 48 87 54 96 5 9 22 38 38 65 15 27 31 56 36 64 26 42 56 96 56
100 0 3 8 17 18 33 34 55 44 72 46 82 1 6 8 17 15 25 7 8 57 93 111 188 85
150 103 176 134 190 20 10 38 20 39 25 2 4 8 4 14 1 5 -3 16 2 24 12 9 11 12
12 8 4 -6 -11 -2 -10 13 3 11 9 24 17 29 17 6 0 20 9 32 20 12 11 23 20 24 19
5 -4 83 34 101 49 9 8 17 11 17 7 0 -5 9 1 20 13 12 12 27 22 35 22 8 0 15 4
15 8 0 9 71 47 83 44 4 -1 7 2 7 8 0 5 15 17 32 26 18 9 88 57 156 105 68 49
125 89 127 89 2 0 22 18 44 39 22 21 41 37 43 36 2 -2 30 21 62 51 33 30 61
54 64 54 5 0 85 76 190 182 89 88 164 169 231 248 36 41 69 78 75 82 6 4 7 8
3 8 -5 0 4 12 18 28 15 15 71 88 126 162 54 74 103 140 107 145 4 6 18 27 31
48 13 21 28 43 34 50 15 15 106 154 109 164 1 5 6 13 11 18 12 15 92 140 134
213 21 34 41 62 45 62 4 0 8 5 8 11 0 6 59 109 130 229 72 120 130 223 130
228 0 6 6 17 13 24 7 7 26 36 41 63 16 28 33 53 38 56 5 3 10 15 11 27 0 12 7
24 14 26 6 3 21 25 33 51 11 25 25 45 30 45 6 0 9 4 7 8 -2 9 67 136 83 152 3
3 13 18 23 33 10 15 22 25 27 22 6 -4 10 -3 10 2 0 4 35 9 77 10 147 2 223 7
223 12 0 9 95 5 110 -4 9 -5 11 -4 6 3 -7 12 4 14 84 14 19 0 43 4 53 9 12 7
17 6 17 -3 0 -8 3 -9 8 -3 10 14 32 17 32 4 0 -7 8 -6 23 3 12 8 38 13 57 11
19 -2 47 1 63 6 18 7 27 7 27 -1 0 -7 5 -6 15 2 12 10 15 10 15 -1 0 -9 3 -10
8 -4 6 10 25 13 107 20 17 2 30 4 30 5 0 1 29 3 64 5 35 2 67 9 71 15 5 8 10
8 14 2 6 -10 55 -4 72 9 6 5 14 6 18 2 10 -10 46 -11 46 -1 0 5 6 8 13 7 6 -2
30 1 53 5 22 4 65 10 95 12 91 9 103 11 122 19 9 4 26 5 37 2 11 -3 20 -1 20
4 0 5 10 8 23 8 20 -1 44 3 117 17 14 3 39 6 56 8 17 2 35 5 40 8 5 3 18 4 29
2 10 -1 24 1 30 5 5 5 17 9 25 10 48 3 70 7 75 13 4 4 13 4 21 1 8 -3 20 -1
27 4 6 5 30 11 52 12 22 1 42 5 45 9 3 4 14 7 25 6 11 0 25 2 30 5 6 3 17 6
25 7 8 0 31 4 50 8 19 4 42 8 50 9 8 2 21 6 28 10 6 5 12 6 12 3 0 -3 11 -1
24 4 17 6 26 5 30 -3 2 -7 5 -4 5 5 1 12 6 15 17 11 9 -3 20 0 25 8 6 10 9 10
9 2 0 -14 31 -6 43 11 5 8 10 6 16 -4 9 -12 11 -12 17 3 3 9 10 17 16 17 5 0
6 -5 2 -12 -4 -7 -3 -8 4 -4 21 13 123 36 133 30 5 -3 9 -1 9 4 0 9 105 36
140 37 8 0 17 3 20 7 3 4 17 9 30 12 14 2 47 11 74 20 27 8 53 13 58 10 4 -3
8 0 8 6 0 7 7 10 15 7 8 -4 17 -2 20 4 4 5 10 7 15 4 5 -3 11 -1 15 4 3 6 12
8 19 5 8 -3 17 -1 21 5 3 6 19 11 36 11 16 0 29 4 29 9 0 5 9 7 20 4 11 -3 20
-1 20 4 0 5 10 10 22 10 13 1 24 6 26 11 2 6 12 8 22 5 12 -3 20 0 20 6 0 7 5
9 10 6 6 -4 17 -1 25 5 8 7 15 9 15 6 0 -4 9 -2 21 4 22 12 54 21 81 23 9 1
14 5 12 9 -5 8 -1 10 38 12 12 0 23 7 26 14 3 10 7 10 18 1 9 -7 14 -8 14 -1
0 6 15 14 33 18 42 10 38 9 72 23 17 7 35 14 40 15 6 2 21 8 35 14 48 21 125
47 133 44 4 -1 7 3 7 10 0 6 3 8 7 5 3 -4 12 -2 19 3 6 6 21 12 32 15 11 2 39
13 62 24 24 11 47 18 51 15 5 -3 9 0 9 5 0 6 9 11 20 11 11 0 20 5 20 11 0 5
5 7 10 4 6 -3 10 -2 10 4 0 5 9 8 20 6 11 -2 18 0 15 6 -4 5 1 9 9 9 9 0 49
16 89 34 41 19 80 36 88 38 7 2 20 9 27 16 8 7 18 10 23 7 5 -4 9 -1 9 5 0 6
5 8 10 5 6 -3 10 -1 10 4 0 6 7 11 15 11 18 0 57 20 67 35 4 6 8 6 8 2 0 -9
122 53 132 68 4 6 8 6 8 1 0 -5 8 -2 18 6 9 8 36 23 60 33 23 10 42 22 42 27
0 5 4 7 9 4 4 -3 19 3 31 14 21 18 35 24 43 18 1 -1 12 7 25 17 12 11 25 18
29 17 3 -2 9 0 12 5 10 14 112 73 126 73 7 0 15 4 17 8 4 11 157 112 169 112
5 0 9 5 9 11 0 6 6 9 14 6 8 -3 17 1 20 9 3 9 10 12 16 9 5 -3 10 1 10 9 0 9
7 16 15 16 9 0 18 6 21 14 3 8 19 20 35 26 16 7 29 16 29 21 0 5 6 9 14 9 7 0
26 12 42 27 16 15 32 27 35 26 3 -1 21 12 40 30 19 17 37 32 40 32 5 0 49 34
108 83 11 10 38 33 62 52 23 19 54 47 69 63 15 15 30 27 33 27 3 0 33 28 66
62 34 34 61 59 61 56 0 -10 204 203 295 308 28 31 55 62 60 68 6 6 26 31 45
56 19 25 39 50 45 57 22 27 32 40 65 88 19 27 43 58 53 69 9 11 17 26 17 33 0
7 3 13 8 13 4 0 20 21 37 48 16 26 35 53 42 60 7 7 13 20 13 27 0 8 8 19 18
24 9 6 14 11 10 11 -6 0 82 153 102 177 5 7 10 15 10 18 0 3 29 65 65 137 36
71 65 136 65 144 0 8 5 14 10 14 6 0 10 7 10 15 0 9 9 34 20 55 11 22 18 40
15 40 -3 0 1 10 10 23 8 12 16 32 18 42 1 11 5 25 9 30 3 6 18 46 33 90 15 44
31 85 36 91 5 6 6 13 4 16 -3 3 0 18 6 34 7 16 14 38 16 49 2 11 15 57 28 102
36 116 74 288 91 408 1 11 3 20 4 20 2 0 4 14 5 30 2 17 4 30 5 30 2 0 3 14 4
30 1 17 5 35 8 41 4 5 5 22 4 37 -2 15 0 30 4 32 4 3 8 22 9 42 1 21 4 65 7
98 3 33 6 99 7 147 1 49 5 88 8 88 9 0 11 138 3 152 -5 7 -9 46 -10 88 -1 41
-5 93 -8 115 -2 22 -7 60 -10 85 -3 25 -8 61 -11 80 -3 19 -6 43 -6 52 0 10
-5 20 -10 23 -5 4 -7 11 -4 16 4 5 3 14 -1 21 -4 7 -9 24 -11 39 -4 37 -74
250 -106 322 -15 31 -27 61 -27 65 -1 4 -6 13 -12 20 -6 6 -7 12 -2 12 5 0 4
4 -2 8 -6 4 -24 32 -39 62 -28 56 -137 226 -171 268 -11 12 -28 34 -39 48 -11
14 -33 40 -50 58 -16 17 -28 32 -27 34 9 10 -270 285 -377 372 -24 19 -54 46
-67 60 -13 14 -24 22 -24 18 0 -4 -13 5 -28 20 -35 34 -302 247 -310 247 -3 0
-20 14 -37 30 -54 51 -97 85 -105 85 -5 0 -15 8 -22 19 -7 10 -17 19 -21 19
-5 0 -26 16 -47 34 -22 18 -56 47 -76 63 -21 17 -51 42 -67 58 -16 15 -31 27
-35 27 -22 0 -437 425 -450 461 -2 6 -17 24 -33 42 -16 17 -29 35 -29 39 0 5
-9 17 -19 27 -28 28 -94 145 -130 231 -18 41 -32 76 -31 78 0 1 -6 25 -15 54
-8 28 -13 54 -10 56 3 3 -1 12 -8 20 -10 13 -9 14 2 7 11 -6 12 -5 5 6 -5 8
-10 30 -11 49 -7 95 -9 176 -4 185 3 6 7 30 8 55 1 25 4 54 6 65 8 51 19 101
25 115 3 8 7 22 8 30 1 8 25 103 54 210 28 107 55 211 60 230 5 19 23 91 41
160 17 69 32 133 32 143 1 9 4 17 7 17 4 0 7 6 8 13 0 6 3 23 7 37 3 14 8 32
10 40 2 8 4 15 6 15 1 0 3 9 5 20 4 26 12 60 14 60 1 0 3 9 5 20 5 27 13 60
15 60 1 0 3 9 5 20 12 71 18 91 28 97 7 4 9 8 6 8 -6 0 45 209 99 410 19 69
29 110 36 150 2 8 6 22 9 30 4 8 9 29 12 45 7 37 13 59 15 63 2 1 3 5 4 10 2
4 8 25 14 47 6 22 13 51 16 65 2 14 5 25 6 25 1 0 3 13 5 29 2 16 7 36 11 45
4 9 8 23 9 31 2 8 6 25 9 38 3 12 8 30 10 40 3 9 23 87 45 172 22 85 38 157
34 160 -3 3 -8 -1 -10 -7 -3 -7 -11 -13 -18 -13 -7 0 -23 -11 -36 -25 -13 -13
-28 -25 -34 -25 -5 0 -34 -18 -62 -40 -29 -22 -53 -36 -53 -32 0 4 -5 -1 -11
-10 -5 -10 -17 -18 -24 -18 -8 0 -15 -4 -15 -8 0 -5 -12 -15 -27 -23 -16 -8
-30 -17 -33 -20 -5 -5 -72 -49 -112 -74 -54 -33 -264 -180 -270 -189 -4 -6 -8
-8 -8 -4 0 7 -270 -171 -403 -266 -36 -25 -70 -46 -76 -46 -6 0 -11 -4 -11 -9
0 -5 -21 -23 -47 -40 -27 -16 -76 -51 -111 -76 -34 -25 -67 -45 -72 -45 -6 0
-10 -4 -10 -10 0 -5 -7 -10 -15 -10 -8 0 -15 -5 -15 -10 0 -6 -8 -14 -17 -17
-20 -8 -34 -18 -69 -50 -13 -12 -24 -20 -24 -17 0 7 -334 -247 -338 -257 -2
-5 -9 -9 -16 -9 -7 0 -22 -10 -33 -22 -11 -13 -30 -30 -43 -38 -26 -18 -61
-45 -100 -80 -16 -14 -41 -34 -56 -45 -15 -11 -41 -33 -56 -49 -15 -16 -28
-26 -28 -21 0 4 -13 -7 -29 -24 -16 -17 -31 -31 -34 -31 -2 0 -24 -19 -48 -41
-24 -23 -62 -59 -85 -80 -23 -22 -43 -39 -46 -39 -13 0 -493 -490 -498 -508
-1 -4 -22 -29 -46 -55 -24 -26 -44 -50 -44 -52 0 -2 -18 -23 -40 -46 -22 -23
-37 -45 -35 -47 3 -3 -4 -12 -15 -19 -11 -8 -18 -19 -15 -24 4 -5 2 -9 -4 -9
-5 0 -20 -17 -32 -37 -13 -21 -30 -43 -39 -50 -8 -7 -10 -13 -5 -13 6 0 4 -4
-3 -9 -7 -4 -42 -52 -77 -107 -35 -54 -69 -105 -75 -112 -6 -7 -9 -16 -6 -20
3 -5 -4 -15 -15 -22 -10 -8 -19 -22 -19 -32 0 -10 -3 -18 -7 -18 -5 0 -21 -29
-37 -65 -16 -36 -34 -65 -38 -65 -5 0 -7 -4 -4 -8 3 -5 -3 -22 -14 -39 -43
-71 -169 -393 -153 -393 3 0 1 -6 -4 -12 -8 -11 -32 -84 -39 -120 -1 -5 -2 -9
-3 -10 -2 -2 -5 -21 -7 -43 -3 -22 -8 -42 -12 -45 -4 -3 -8 -18 -9 -35 -3 -48
-7 -65 -14 -65 -3 0 -5 -13 -3 -30 2 -16 0 -30 -4 -30 -4 0 -8 -15 -8 -32 -2
-47 -13 -202 -20 -278 -8 -80 -8 -88 0 -175 4 -38 8 -106 11 -150 2 -44 5 -80
6 -80 1 0 7 -39 12 -90 2 -16 6 -39 10 -50 4 -11 9 -36 11 -55 7 -47 15 -87
28 -135 5 -22 12 -51 14 -65 3 -14 7 -32 11 -40 3 -8 7 -19 8 -25 7 -39 19
-76 26 -81 4 -2 6 -11 2 -19 -3 -8 0 -15 7 -15 6 0 8 -4 5 -10 -3 -5 -3 -16 2
-22 4 -7 8 -20 10 -28 1 -8 6 -23 12 -35 5 -11 23 -54 39 -95 17 -41 41 -97
53 -125 13 -27 24 -52 24 -55 2 -9 40 -85 45 -90 10 -10 50 -95 50 -106 0 -6
7 -17 15 -24 9 -7 13 -15 10 -18 -3 -3 1 -12 9 -21 7 -9 48 -83 91 -166 43
-82 82 -153 87 -156 5 -3 10 -16 11 -27 1 -12 4 -22 8 -22 7 0 29 -47 29 -63
0 -15 -54 -49 -64 -40 -3 3 -6 2 -6 -3 0 -9 -61 -37 -75 -34 -3 0 -13 -6 -22
-15 -8 -9 -22 -14 -29 -11 -8 3 -14 2 -14 -2 0 -11 -58 -34 -69 -28 -5 3 -12
-1 -15 -10 -3 -9 -12 -14 -20 -11 -7 3 -18 1 -22 -3 -5 -5 -21 -11 -34 -14
-14 -2 -26 -5 -27 -7 -2 -1 -7 -2 -12 -3 -5 0 -13 -4 -17 -8 -4 -5 -18 -8 -30
-8 -13 0 -26 -5 -29 -10 -4 -6 -10 -8 -15 -5 -5 3 -21 0 -37 -7 -15 -6 -39
-13 -52 -14 -13 -2 -31 -6 -40 -10 -9 -4 -21 -6 -28 -5 -6 1 -14 -3 -18 -8 -3
-6 -12 -8 -20 -4 -8 3 -15 1 -15 -4 0 -5 -10 -10 -22 -10 -30 -2 -50 -7 -65
-16 -8 -5 -13 -3 -13 5 0 8 -3 9 -8 3 -7 -9 -14 -12 -52 -20 -8 -2 -15 -4 -15
-5 0 -1 -16 -3 -35 -6 -19 -2 -46 -7 -60 -10 -14 -4 -35 -8 -48 -10 -12 -1
-46 -7 -75 -13 -28 -6 -68 -13 -87 -15 -19 -2 -42 -7 -50 -10 -8 -3 -37 -7
-65 -10 -27 -3 -61 -8 -75 -11 -38 -8 -121 -18 -157 -19 -18 -1 -33 -4 -33 -7
0 -6 -19 -8 -112 -12 -27 -1 -48 -5 -48 -8 0 -4 -12 -7 -27 -7 -35 -1 -118 -9
-118 -12 0 -1 -21 -3 -47 -4 -25 0 -49 -4 -52 -7 -3 -3 -24 -4 -46 -3 -22 1
-40 -1 -40 -5 0 -3 -24 -7 -53 -8 -28 -1 -77 -4 -107 -8 -30 -3 -79 -6 -107
-6 -29 0 -53 -4 -53 -7 0 -4 -26 -8 -58 -9 -81 -3 -187 -10 -187 -13 0 -2
-136 -9 -215 -11 -30 -1 -59 -4 -64 -7 -5 -2 -52 -6 -105 -8 -163 -6 -256 -11
-256 -13 0 -2 -12 -4 -27 -5 -16 -1 -28 2 -28 7 0 4 -5 5 -11 2 -17 -11 -59
-13 -65 -3 -3 4 -11 5 -17 1 -7 -4 -32 -9 -57 -10 -25 -1 -47 -2 -50 -3 -13
-4 -132 0 -140 5 -5 3 -12 0 -15 -6 -4 -5 -13 -8 -19 -6 -7 3 -19 1 -26 -3 -7
-5 -24 -4 -36 0 -13 5 -26 5 -29 1 -3 -5 -20 -5 -39 -1 -19 4 -37 5 -40 2 -8
-7 -74 -7 -82 1 -3 3 -11 4 -17 2 -33 -12 -94 -15 -329 -15 -142 -1 -260 -5
-263 -10 -3 -5 -15 -6 -28 -1 -12 5 -32 5 -44 0 -12 -4 -25 -4 -27 0 -3 5 -24
5 -46 1 -22 -4 -40 -4 -40 1 0 4 -13 4 -30 -1 -16 -5 -30 -6 -30 -2 0 8 -294
6 -315 -2 -8 -3 -17 -1 -20 4 -3 6 -15 6 -29 0 -13 -5 -26 -6 -30 -3 -3 3
-102 8 -220 10 l-215 5 -30 -48 c-17 -27 -35 -54 -41 -61 -5 -7 -10 -15 -10
-18 0 -4 -13 -26 -30 -50 -16 -24 -30 -47 -30 -50 0 -4 -9 -20 -21 -36 -11
-16 -17 -29 -12 -29 4 0 0 -5 -10 -11 -9 -6 -15 -14 -12 -20 4 -5 1 -9 -4 -9
-6 0 -11 -7 -11 -15 0 -8 -9 -24 -20 -35 -11 -11 -20 -22 -20 -25 0 -3 -31
-56 -68 -117 -70 -116 -91 -150 -267 -443 -56 -93 -129 -213 -162 -265 -32
-52 -62 -103 -66 -113 -6 -17 -41 -73 -104 -168 -12 -19 -23 -40 -23 -46 0 -6
-4 -13 -8 -15 -13 -5 -71 -106 -65 -112 4 -3 1 -6 -6 -6 -7 0 -10 -4 -7 -9 3
-5 -1 -12 -10 -15 -9 -4 -14 -9 -11 -13 4 -3 -3 -14 -14 -24 -11 -9 -20 -21
-19 -26 2 -12 -53 -103 -62 -103 -4 0 -8 -5 -8 -11 0 -6 -54 -100 -120 -209
-66 -110 -120 -203 -120 -208 0 -6 -7 -12 -15 -16 -8 -3 -15 -14 -15 -25 0
-11 -4 -21 -8 -23 -10 -4 -72 -105 -72 -118 0 -5 -6 -13 -12 -17 -7 -4 -21
-24 -31 -43 -17 -35 -97 -165 -114 -185 -4 -6 -9 -16 -11 -23 -1 -7 -16 -31
-32 -54 -17 -22 -30 -47 -30 -55 0 -7 -3 -13 -8 -13 -4 0 -16 -17 -27 -37 -11
-21 -30 -54 -43 -73 -13 -19 -32 -54 -43 -77 -11 -24 -24 -43 -28 -43 -5 0
-12 -13 -16 -30 -4 -16 -11 -28 -17 -27 -6 1 -12 -6 -13 -15 -2 -10 -17 -38
-34 -63 -17 -25 -31 -48 -31 -51 0 -2 -22 -39 -49 -82 -26 -42 -140 -230 -253
-417 -113 -187 -237 -393 -277 -457 -39 -64 -71 -122 -71 -127 0 -6 -4 -11 -9
-11 -5 0 -13 -10 -17 -22 -4 -13 -10 -25 -14 -28 -4 -3 -17 -24 -29 -47 -12
-24 -26 -43 -32 -43 -6 0 -8 -4 -5 -8 3 -5 -9 -31 -27 -59 -18 -27 -41 -65
-51 -84 -11 -19 -37 -61 -58 -94 -21 -33 -38 -64 -37 -69 0 -5 -4 -12 -10 -15
-9 -6 -111 -168 -111 -177 0 -2 -27 -46 -60 -99 -33 -53 -60 -100 -60 -106 0
-5 -4 -9 -10 -9 -5 0 -10 -5 -10 -10 0 -9 -132 -231 -183 -307 -12 -18 -28
-33 -34 -33 -7 0 -13 -4 -13 -10 0 -5 -7 -10 -15 -10 -7 0 -18 -6 -22 -13 -4
-8 -23 -22 -40 -32 -18 -11 -33 -23 -33 -28 0 -4 -4 -5 -10 -2 -5 3 -10 1 -10
-4 0 -6 -7 -11 -15 -11 -8 0 -15 -5 -15 -11 0 -5 -4 -8 -9 -5 -5 3 -12 -1 -15
-10 -3 -8 -10 -12 -16 -9 -5 3 -10 2 -10 -3 0 -10 -46 -43 -64 -46 -6 -1 -20
-9 -31 -18 -41 -34 -219 -148 -232 -148 -7 0 -13 -8 -13 -17 0 -9 -3 -14 -6
-10 -7 6 -157 -90 -162 -105 -2 -4 -8 -6 -13 -2 -5 3 -12 -2 -15 -10 -3 -9
-10 -13 -15 -10 -5 3 -9 0 -9 -6 0 -6 -4 -9 -9 -6 -5 3 -20 -5 -35 -19 -14
-13 -26 -21 -26 -17 0 4 -7 -2 -15 -12 -8 -11 -15 -16 -15 -12 0 4 -9 1 -21
-7 -18 -13 -24 -13 -51 1 -23 13 -32 14 -35 5 -2 -7 -15 -28 -28 -48 -14 -19
-22 -35 -20 -35 3 0 -5 -17 -18 -37 -13 -21 -39 -69 -58 -108 -19 -38 -37 -72
-40 -75 -3 -3 -25 -43 -50 -90 -24 -47 -48 -88 -54 -92 -5 -4 -7 -8 -3 -8 7 0
-49 -110 -61 -120 -3 -3 -7 -11 -9 -18 -1 -7 -13 -30 -25 -50 -13 -20 -51 -89
-85 -154 -78 -150 -85 -162 -97 -170 -5 -4 -7 -8 -3 -8 7 0 -49 -110 -61 -120
-3 -3 -7 -12 -9 -20 -2 -8 -23 -50 -48 -92 -24 -42 -44 -82 -44 -88 0 -5 -5
-10 -11 -10 -5 0 -8 -4 -5 -9 4 -5 2 -11 -3 -13 -5 -1 -11 -10 -13 -18 -2 -8
-9 -21 -16 -28 -7 -8 -10 -18 -7 -23 4 -5 1 -9 -5 -9 -6 0 -9 -4 -6 -9 3 -5
-1 -12 -10 -15 -8 -3 -12 -10 -9 -16 3 -5 1 -10 -4 -10 -6 0 -11 -5 -11 -10 0
-6 -21 -49 -47 -96 -47 -83 -72 -130 -123 -224 -13 -25 -23 -48 -22 -52 1 -5
-3 -8 -9 -8 -5 0 -7 -4 -4 -10 3 -5 1 -10 -5 -10 -10 0 -35 -48 -32 -62 1 -5
-3 -8 -8 -8 -6 0 -10 -7 -10 -15 0 -8 -4 -15 -8 -15 -7 0 -34 -59 -31 -69 0
-2 -4 -7 -9 -10 -8 -5 -26 -36 -81 -140 -7 -14 -43 -78 -79 -141 -36 -63 -74
-132 -84 -153 l-19 -38 -77 2 c-42 1 -86 5 -97 9 -10 4 -33 4 -50 0 -17 -4
-39 -4 -50 0 -11 4 -30 4 -42 -1 -12 -5 -25 -4 -28 0 -3 5 -20 5 -39 1 -19 -4
-37 -6 -39 -3 -5 4 -112 8 -567 18 -157 4 -286 8 -288 10 -2 1 11 24 27 51 17
27 35 59 40 71 6 12 23 41 38 65 15 24 28 45 29 48 3 14 18 46 24 50 10 8 90
151 90 161 0 5 5 9 10 9 6 0 10 9 10 19 0 11 4 21 8 23 5 2 26 35 47 73 21 39
44 77 51 85 7 8 12 17 11 20 0 3 11 25 25 50 14 25 56 97 92 160 36 63 66 120
66 126 0 7 4 14 8 16 12 4 85 138 76 138 -4 0 0 6 9 13 9 6 17 19 19 27 3 14
7 20 36 55 7 8 10 20 7 25 -3 6 -1 10 4 10 6 0 11 7 11 15 0 8 5 15 11 15 5 0
8 4 5 9 -3 5 0 14 8 20 8 7 17 23 20 36 4 14 11 25 16 25 6 0 10 4 10 9 0 5
25 52 55 105 30 52 60 106 65 118 6 13 21 41 34 63 13 22 22 43 19 48 -2 4 0
7 5 7 5 0 22 25 37 55 14 30 31 55 36 55 6 0 8 3 6 8 -3 4 17 45 42 91 l47 85
-62 158 c-34 87 -59 158 -56 158 3 0 -3 9 -14 21 -10 12 -18 23 -16 25 1 2 -5
21 -14 42 -9 20 -17 42 -18 47 -1 6 -12 33 -25 60 -66 144 -79 193 -55 202 8
3 14 9 14 14 0 5 26 48 58 97 33 48 81 121 107 162 27 41 51 77 55 80 14 12
110 160 103 160 -5 0 0 5 10 11 9 6 15 14 12 20 -4 5 -1 9 5 9 6 0 16 12 23
28 6 15 14 29 18 32 6 5 29 39 163 241 37 57 77 115 87 129 10 14 31 46 46 72
16 27 31 48 36 48 4 0 7 6 7 14 0 8 4 16 8 18 10 4 72 96 72 108 0 4 4 10 8
12 11 4 75 98 67 98 -3 0 5 12 19 27 14 15 23 30 20 35 -3 4 0 8 5 8 6 0 11 7
11 16 0 8 5 12 10 9 6 -3 10 -1 10 5 0 10 135 218 149 230 3 3 12 17 20 32 8
15 22 36 32 47 10 10 15 21 12 25 -3 3 2 8 11 12 9 3 16 11 16 16 0 6 20 39
45 74 25 34 45 67 45 72 0 6 3 12 8 14 11 5 72 95 72 106 0 6 4 12 8 14 10 4
72 96 72 108 0 4 3 10 8 12 11 5 62 86 62 98 0 6 4 9 8 6 4 -2 13 8 20 23 7
15 21 37 32 49 11 12 20 24 20 27 0 10 83 130 92 133 4 2 8 8 8 13 0 5 47 79
105 164 58 85 105 159 105 164 0 5 3 11 8 13 11 4 92 126 92 137 0 5 4 11 8
13 5 2 52 71 107 153 54 83 102 152 106 153 5 2 9 10 9 17 0 7 9 24 20 37 29
33 150 217 150 228 0 4 4 10 9 12 4 2 53 71 107 153 54 83 102 152 106 153 5
2 8 8 8 13 0 6 52 86 115 180 63 93 115 174 115 179 0 4 4 10 8 12 11 5 132
185 132 198 0 5 4 10 8 10 5 0 17 16 28 35 10 19 22 35 26 35 5 0 8 7 8 15 0
9 7 18 15 21 8 4 15 15 15 25 0 10 4 19 8 19 4 0 21 22 37 50 17 27 33 50 38
50 4 0 7 7 7 15 0 8 3 15 8 15 4 0 13 13 20 28 6 16 21 38 32 50 11 12 20 25
20 29 0 4 18 32 40 61 22 29 40 57 40 62 0 6 5 10 10 10 6 0 10 4 10 10 0 5
29 52 65 105 36 52 65 99 65 105 0 5 4 10 8 10 5 0 18 18 31 40 12 22 26 40
32 40 5 0 9 5 9 11 0 12 110 181 125 191 5 4 10 12 10 18 0 6 6 14 13 19 8 5
13 11 13 15 -2 9 70 120 80 124 5 2 9 8 9 14 0 6 14 27 30 48 17 21 30 43 30
49 0 6 5 11 11 11 5 0 8 4 5 9 -3 5 1 11 9 15 8 3 15 12 15 21 0 8 4 15 9 15
5 0 13 10 17 23 4 12 10 24 13 27 16 11 72 103 66 108 -8 8 -475 8 -475 -1 0
-10 -23 -4 -32 8 -5 6 -8 6 -8 -1 0 -9 -105 -12 -389 -12 -214 1 -394 -2 -400
-6 -6 -4 -11 -1 -11 6 0 8 -3 9 -8 3 -9 -12 -941 -14 -959 -2 -8 5 -13 4 -13
-3 0 -6 -5 -8 -11 -4 -6 4 -162 7 -345 7 -184 0 -334 2 -334 6 0 3 -87 7 -193
8 -105 1 -257 4 -337 7 -80 3 -188 6 -240 6 -52 1 -102 4 -110 7 -8 3 -62 6
-120 8 -58 2 -145 6 -195 9 -49 3 -119 8 -155 10 -36 2 -77 5 -92 8 -16 3 -28
1 -28 -5 0 -7 -4 -7 -11 0 -7 7 -20 8 -34 3 -12 -5 -26 -5 -31 0 -5 4 -53 11
-107 14 -54 3 -102 8 -107 11 -5 3 -12 1 -15 -5 -4 -7 -11 -8 -18 -1 -7 5 -55
11 -107 14 -52 3 -95 6 -95 7 0 3 -209 24 -345 34 -25 2 -52 6 -60 9 -8 3 -22
5 -30 6 -49 0 -118 9 -128 15 -7 4 -22 7 -35 6 -12 -1 -24 -1 -27 0 -3 2 -18
4 -35 5 -16 2 -30 4 -30 5 0 1 -18 4 -41 5 -23 2 -57 8 -77 13 -20 6 -50 9
-66 8 -17 -1 -31 1 -31 5 0 4 -11 6 -25 4 -14 -1 -28 2 -31 7 -4 5 -17 7 -30
4 -14 -4 -24 -2 -24 4 0 6 -13 8 -30 5 -16 -3 -30 -2 -30 3 0 4 -10 9 -22 9
-36 3 -121 17 -138 23 -3 1 -9 2 -14 1 -5 -1 -16 1 -25 5 -9 4 -25 8 -36 10
-50 10 -60 12 -60 13 0 1 -13 4 -29 6 -16 2 -36 7 -45 11 -9 4 -29 8 -44 10
-16 1 -34 6 -40 11 -7 5 -24 9 -39 8 -16 0 -28 2 -28 6 0 4 -19 10 -42 14
l-41 7 44 39 c24 22 58 52 74 68 57 54 243 219 252 222 4 2 20 19 36 37 15 19
27 31 27 28 0 -7 40 28 131 115 33 30 59 54 59 53 0 -1 15 12 33 30 34 32 218
205 258 243 13 11 43 41 67 66 23 25 42 44 42 42 0 -3 138 141 222 231 32 34
60 59 63 56 3 -3 5 0 5 7 0 7 33 50 73 95 60 67 133 153 170 201 4 6 16 21 27
34 11 13 20 27 20 30 0 3 14 22 30 41 45 53 45 54 53 73 3 9 11 17 17 17 5 0
10 5 10 10 0 6 18 35 40 65 22 30 37 55 33 55 -4 0 0 5 10 11 9 5 17 17 17 24
0 8 5 15 10 15 6 0 10 4 10 9 0 5 28 57 62 117 71 126 145 282 146 308 0 5 5
12 11 15 5 4 12 19 15 35 3 15 10 34 17 42 6 8 9 14 6 14 -3 0 5 28 19 61 13
34 21 66 18 70 -3 5 -1 9 5 9 5 0 10 8 10 18 1 37 5 52 12 52 5 0 6 7 3 15 -4
8 -1 22 6 30 7 8 9 15 5 15 -4 0 -2 6 4 13 6 8 8 17 5 20 -4 3 -3 14 1 24 4
10 9 29 10 43 2 14 6 41 10 60 23 119 33 362 20 505 -4 39 -8 88 -10 110 -2
22 -4 40 -5 40 -1 0 -4 14 -6 30 -2 17 -6 44 -9 60 -4 17 -8 37 -9 45 -2 8 -6
26 -9 40 -4 14 -9 36 -11 50 -3 14 -12 50 -21 80 -9 30 -16 65 -16 77 0 12 -4
25 -9 28 -6 3 -10 17 -10 31 0 13 -5 24 -10 24 -6 0 -9 3 -8 8 3 13 -23 92
-30 92 -4 0 -8 10 -8 23 -1 12 -26 77 -57 144 -30 67 -52 124 -49 127 3 3 0 6
-7 6 -7 0 -9 5 -6 10 3 6 2 10 -3 10 -10 0 -36 58 -33 73 0 4 -3 7 -9 7 -5 0
-10 7 -10 15 0 8 -5 15 -11 15 -5 0 -7 5 -4 10 3 6 1 10 -5 10 -6 0 -8 5 -5
10 3 6 1 10 -4 10 -6 0 -10 3 -9 8 3 10 -33 82 -41 82 -4 0 -8 6 -8 13 0 6
-18 41 -39 75 -21 35 -46 76 -54 90 -8 15 -17 29 -20 32 -8 8 -29 43 -42 70
-7 14 -15 27 -18 30 -3 3 -11 16 -19 30 -83 146 -155 266 -162 268 -5 2 -9 10
-9 17 0 8 -6 20 -12 27 -7 8 -24 34 -37 58 -13 25 -40 70 -59 100 -19 30 -34
55 -32 55 2 0 -48 84 -110 185 -5 8 -38 65 -74 125 -36 61 -70 116 -76 123 -6
6 -8 12 -4 12 3 0 0 7 -7 16 -14 17 -33 48 -45 74 -4 8 -31 51 -60 95 -28 44
-62 99 -74 123 -12 23 -26 45 -31 48 -5 3 -7 10 -4 15 4 5 1 9 -4 9 -6 0 -11
6 -11 13 0 8 -9 22 -19 31 -11 10 -17 24 -15 31 3 7 -2 15 -11 19 -10 3 -18
-1 -21 -12z"/>
</g>
</svg>
